<?xml version="1.0" standalone="no"?>
<!DOCTYPE svg PUBLIC "-//W3C//DTD SVG 20010904//EN"
 "http://www.w3.org/TR/2001/REC-SVG-20010904/DTD/svg10.dtd">
<svg version="1.0" xmlns="http://www.w3.org/2000/svg"
 width="338.000000pt" height="287.000000pt" viewBox="0 0 338.000000 287.000000"
 preserveAspectRatio="xMidYMid meet">

<g transform="translate(0.000000,287.000000) scale(0.100000,-0.100000)"
fill="#000000" stroke="none">
<path d="M1255 2424 c-33 -11 -76 -29 -95 -39 -50 -26 -151 -131 -144 -150 4
-8 1 -15 -5 -15 -6 0 -19 -17 -30 -39 -20 -37 -21 -38 -88 -44 -176 -15 -305
-105 -364 -254 -19 -47 -23 -78 -24 -161 l0 -104 -30 -15 c-97 -50 -163 -139
-190 -255 -13 -59 -13 -73 1 -135 17 -79 54 -149 75 -145 16 3 -14 -25 -94
-85 -64 -48 -129 -142 -154 -221 -10 -29 -25 -58 -36 -63 -27 -15 -57 -70 -57
-106 0 -22 10 -44 31 -68 27 -31 37 -35 79 -35 57 0 95 26 105 71 4 19 16 34
30 39 32 12 41 45 20 76 -14 22 -21 25 -53 19 -24 -4 -43 -1 -55 8 -18 13 -18
16 10 78 34 74 75 124 142 173 59 44 98 59 107 44 5 -7 2 -8 -7 -3 -11 6 -11
5 -2 -5 6 -7 22 -18 35 -24 20 -10 24 -21 29 -86 8 -117 53 -193 157 -268 57
-40 156 -59 231 -43 70 15 65 16 94 -27 51 -75 101 -119 169 -149 25 -11 26
-14 16 -50 -6 -21 -8 -67 -4 -103 5 -63 5 -66 -17 -67 -81 -6 -121 -32 -115
-74 4 -29 72 -58 137 -58 48 -1 126 31 135 54 3 8 -7 38 -22 67 -20 41 -26 67
-26 115 0 35 2 65 5 67 2 3 37 6 77 7 128 4 229 49 309 137 l42 46 54 -56 c35
-36 78 -67 123 -88 61 -29 80 -33 159 -34 50 0 93 -5 97 -11 18 -25 8 -125
-19 -179 -28 -59 -27 -77 10 -101 78 -51 263 -10 243 53 -9 28 -36 42 -93 51
l-45 6 -1 107 -2 106 38 17 c44 19 130 102 153 146 15 29 17 30 57 22 78 -15
173 -6 230 22 49 25 142 104 132 113 -2 2 4 13 14 24 26 27 54 133 47 174 -5
23 -2 36 9 46 9 7 26 21 37 31 30 28 60 15 141 -63 72 -68 127 -154 127 -199
0 -24 -29 -35 -69 -26 -56 12 -86 -67 -33 -90 12 -5 22 -17 22 -27 0 -9 15
-33 34 -52 28 -31 40 -36 77 -36 25 0 55 7 67 16 27 19 52 65 52 96 0 31 -34
85 -59 93 -13 4 -25 23 -35 58 -27 94 -101 191 -198 263 l-47 35 29 40 c17 24
36 70 46 113 20 88 11 157 -33 245 -29 56 -122 148 -160 158 -15 3 -23 13 -23
28 0 12 -7 36 -16 54 -11 23 -14 44 -9 74 12 79 8 115 -19 162 -15 25 -29 45
-32 45 -7 0 3 -66 23 -154 22 -92 7 -200 -31 -233 -31 -26 -33 -49 -6 -56 12
-3 29 -24 41 -52 17 -38 20 -58 14 -101 -5 -45 -4 -54 9 -54 45 0 52 114 12
186 -30 54 -32 64 -9 64 30 0 102 -50 137 -96 86 -112 87 -277 2 -386 -12 -16
-17 -16 -82 11 -38 16 -97 35 -132 42 -54 11 -64 11 -77 -2 -26 -26 -7 -44 65
-63 87 -22 150 -46 150 -57 0 -14 -49 -22 -63 -11 -12 10 -39 15 -64 13 -25
-2 -13 -32 17 -43 36 -12 45 -39 37 -113 -11 -103 -78 -195 -176 -237 -105
-45 -296 -2 -202 46 43 23 73 69 69 108 -4 46 -31 44 -38 -2 -4 -25 -14 -41
-40 -58 -33 -22 -53 -24 -92 -7 -12 5 -20 2 -24 -10 -5 -11 4 -25 27 -45 l34
-28 -25 -47 c-35 -65 -118 -139 -188 -166 -148 -57 -334 -7 -427 115 -26 34
-27 39 -16 82 7 25 9 55 6 65 -10 30 -39 19 -43 -16 -5 -40 -63 -125 -123
-179 -163 -147 -438 -109 -555 76 -22 34 -23 43 -13 76 16 56 9 107 -16 107
-16 0 -19 -6 -17 -31 5 -57 -11 -78 -73 -98 -171 -54 -355 81 -359 262 l-1 65
38 11 c64 19 117 86 67 86 -11 0 -20 -4 -20 -8 0 -13 -57 -42 -84 -42 -29 0
-76 19 -76 32 0 11 34 24 130 50 91 25 103 33 89 60 -9 18 -17 20 -56 14 -25
-3 -86 -20 -134 -36 -49 -17 -94 -28 -99 -25 -6 4 -22 30 -37 58 -31 62 -42
164 -23 223 30 95 116 185 201 213 l37 12 -15 47 c-22 71 -12 166 24 244 59
123 166 197 299 206 l74 5 0 -31 c0 -17 7 -37 15 -46 20 -19 49 -10 38 13 -27
57 19 174 99 254 125 124 308 156 462 81 85 -40 89 -46 82 -99 -4 -25 -4 -54
-1 -65 8 -24 31 -26 43 -4 7 13 13 14 30 5 28 -15 84 -14 107 2 26 20 10 40
-27 32 -34 -8 -79 8 -95 34 -13 21 -9 29 37 63 101 76 277 90 400 31 111 -53
184 -134 220 -246 8 -27 16 -37 27 -33 8 3 19 6 23 6 30 0 -67 175 -127 230
-100 93 -173 120 -317 120 -108 0 -175 -19 -246 -70 l-32 -23 -67 35 c-91 49
-126 59 -223 61 -62 1 -98 -3 -143 -19z"/>
<path d="M3025 2251 c-45 -20 -95 -73 -95 -100 0 -11 22 -28 67 -49 l67 -32
22 21 c28 27 64 18 64 -15 0 -30 -13 -41 -78 -59 -28 -9 -62 -23 -74 -31 -21
-15 -58 -64 -58 -78 0 -9 126 -68 144 -68 6 0 16 8 22 18 7 10 31 24 55 31 70
21 115 51 139 92 44 80 22 184 -51 235 -79 55 -155 67 -224 35z"/>
<path d="M2901 1804 c-46 -58 -9 -138 64 -138 64 0 101 64 71 122 -17 34 -34
42 -81 42 -24 0 -39 -7 -54 -26z"/>
<path d="M2108 1600 c-114 -20 -183 -163 -128 -269 68 -133 264 -132 329 1 68
141 -48 294 -201 268z m10 -67 c34 -30 33 -75 -3 -99 -21 -14 -30 -14 -55 -4
-49 20 -53 86 -8 108 32 15 43 14 66 -5z m122 -182 c7 -15 6 -23 -6 -35 -8 -9
-19 -16 -24 -16 -5 0 -16 7 -24 16 -12 12 -13 20 -6 35 14 25 46 25 60 0z"/>
<path d="M1129 1580 c-19 -10 -47 -36 -61 -57 -104 -151 52 -348 220 -278 116
49 154 185 79 287 -48 65 -162 88 -238 48z m69 -46 c29 -20 29 -67 0 -94 -28
-25 -52 -26 -78 0 -39 39 -13 110 40 110 9 0 26 -7 38 -16z m116 -186 c8 -14
7 -21 -6 -34 -30 -30 -75 9 -48 42 16 18 39 15 54 -8z"/>
<path d="M1020 1202 c-14 -1 -44 -10 -67 -18 -34 -13 -43 -21 -43 -40 0 -45
112 -75 205 -54 80 18 107 55 63 84 -25 16 -119 33 -158 28z"/>
<path d="M2285 1202 c-16 -1 -49 -10 -72 -18 -53 -19 -60 -55 -15 -78 86 -44
262 -17 262 40 0 32 -99 63 -175 56z"/>
<path d="M1609 1170 c-22 -22 -29 -37 -27 -57 4 -38 38 -38 56 0 19 39 66 38
87 -3 17 -33 39 -39 53 -13 15 25 -6 71 -39 88 -47 25 -96 19 -130 -15z"/>
</g>
</svg>
